<svg xmlns="http://www.w3.org/2000/svg" xml:space="preserve" width="576.09" height="593.84" viewBox="0 0 432.07 445.38"><g style="fill-rule:nonzero;clip-rule:nonzero;fill:none;stroke:#fff;stroke-width:12.4651;stroke-linecap:round;stroke-linejoin:round;stroke-miterlimit:4"><path d="M323.2 324.23c2.84-23.6 1.99-27.07 19.57-23.24l4.46.39c13.52.61 31.2-2.17 41.59-7 22.36-10.38 35.62-27.7 13.57-23.15-50.3 10.38-53.76-6.65-53.76-6.65 53.12-78.8 75.32-178.84 56.15-203.32-52.27-66.8-142.74-35.21-144.26-34.4l-.48.1a179.29 179.29 0 0 0-33.55-3.5c-22.77-.37-40.04 5.97-53.14 15.9 0 0-161.4-66.5-153.9 83.63 1.6 31.94 45.78 241.66 98.47 178.31 19.26-23.16 37.87-42.74 37.87-42.74a48.85 48.85 0 0 0 31.92 8.14l.9-.76c-.29 2.87-.16 5.69.35 9.02-13.57 15.16-9.58 17.83-36.72 23.41-27.46 5.66-11.33 15.74-.8 18.37 12.77 3.2 42.3 7.72 62.27-20.22l-.8 3.18c5.33 4.26 4.97 30.62 5.73 49.46.75 18.83 2.01 36.4 5.85 46.77 3.84 10.36 8.37 37.05 44.04 29.4 29.8-6.38 52.6-15.58 54.67-101.1" style="fill:#000;stroke:#000;stroke-width:37.3953;stroke-linecap:butt;stroke-linejoin:miter"/><path stroke="none" d="M402.4 271.23c-50.3 10.38-53.76-6.66-53.76-6.66 53.1-78.8 75.3-178.84 56.15-203.32-52.27-66.79-142.75-35.2-144.26-34.38l-.49.09a179.39 179.39 0 0 0-33.56-3.5c-22.76-.37-40.03 5.97-53.13 15.9 0 0-161.4-66.5-153.9 83.63 1.6 31.94 45.78 241.66 98.47 178.31a973.22 973.22 0 0 1 37.87-42.74 48.85 48.85 0 0 0 31.9 8.14l.9-.76c-.27 2.87-.14 5.69.37 9.02-13.58 15.16-9.59 17.83-36.72 23.41-27.46 5.66-11.33 15.74-.8 18.37 12.77 3.2 42.3 7.72 62.27-20.22l-.8 3.18c5.32 4.26 9.05 27.72 8.43 48.97-.63 21.26-1.05 35.86 3.14 47.26 4.2 11.4 8.37 37.05 44.05 29.4 29.8-6.38 45.25-22.94 47.4-50.55 1.53-19.63 4.98-16.73 5.2-34.28l2.76-8.31c3.2-26.61.51-35.2 18.88-31.2l4.46.39c13.52.61 31.2-2.18 41.59-7 22.36-10.38 35.62-27.7 13.57-23.15z" style="fill:#336791;stroke:none"/><path d="M215.87 286.48c-1.39 49.52.34 99.38 5.19 111.5 4.85 12.12 15.22 35.69 50.9 28.04 29.8-6.39 40.65-18.75 45.36-46.05 3.46-20.08 10.14-75.85 11-87.28M173.1 38.26s-161.52-66.02-154 84.1c1.59 31.94 45.77 241.67 98.47 178.32 19.25-23.17 36.67-41.33 36.67-41.33M260.35 26.2c-5.6 1.76 89.85-34.88 144.09 34.42 19.15 24.49-3.05 124.52-56.16 203.33"/><path d="M348.28 263.95s3.46 17.04 53.77 6.66c22.04-4.56 8.77 12.77-13.58 23.15-18.35 8.51-59.48 10.7-60.15-1.07-1.73-30.35 21.65-21.13 19.96-28.74-1.52-6.85-11.98-13.57-18.9-30.34-6.03-14.63-82.79-126.84 21.3-110.18 3.8-.79-27.15-99-124.56-100.6-97.38-1.6-94.19 119.76-94.19 119.76" style="stroke-linejoin:bevel"/><path d="M188.6 274.33c-13.57 15.17-9.58 17.83-36.72 23.42-27.46 5.66-11.32 15.73-.8 18.37 12.77 3.2 42.31 7.71 62.27-20.23 6.08-8.51-.04-22.09-8.38-25.55-4.04-1.67-9.43-3.77-16.37 4z"/><path d="M187.72 274.07c-1.37-8.92 2.93-19.53 7.53-31.94 6.92-18.63 22.9-37.26 10.12-96.34-9.53-44.03-73.4-9.16-73.44-3.2-.04 5.97 2.9 30.26-1.07 58.55-5.16 36.92 23.5 68.14 56.48 64.94"/><path d="M172.52 141.7c-.3 2.04 3.73 7.48 8.97 8.2 5.24.74 9.72-3.52 10-5.55.28-2.04-3.73-4.29-8.98-5.02-5.23-.73-9.72.34-10 2.37z" style="fill:#fff;stroke-width:4.155;stroke-linecap:butt;stroke-linejoin:miter"/><path d="M331.94 137.54c.28 2.04-3.73 7.48-8.98 8.21-5.23.73-9.71-3.52-10-5.56-.28-2.04 3.74-4.28 8.98-5.01 5.24-.73 9.72.33 10 2.36z" style="fill:#fff;stroke-width:2.0775;stroke-linecap:butt;stroke-linejoin:miter"/><path d="M350.68 123.43c.86 16-3.45 26.89-4 43.92-.8 24.74 11.8 53.07-7.18 81.43"/></g></svg>