<svg xmlns="http://www.w3.org/2000/svg" width="65" height="64" fill="none"><g clip-path="url(#a)"><mask id="b" width="65" height="64" x="0" y="0" maskUnits="userSpaceOnUse" style="mask-type:alpha"><path fill="#000" d="M32.58 64a32 32 0 1 0 0-64 32 32 0 0 0 0 64Z"/></mask><g mask="url(#b)"><path fill="#000" stroke="#fff" stroke-width="6" d="M32.58 62.93a30.93 30.93 0 1 0 0-61.86 30.93 30.93 0 0 0 0 61.86Z"/><path fill="url(#c)" d="M53.74 56 25.17 19.2h-5.39v25.59h4.31V24.67l26.27 33.94a32.1 32.1 0 0 0 3.38-2.6Z"/><path fill="url(#d)" d="M45.74 19.2h-4.27v25.6h4.27V19.2Z"/></g></g><defs><linearGradient id="c" x1="39.34" x2="51.96" y1="41.42" y2="57.07" gradientUnits="userSpaceOnUse"><stop stop-color="#fff"/><stop offset="1" stop-color="#fff" stop-opacity="0"/></linearGradient><linearGradient id="d" x1="43.6" x2="43.53" y1="19.2" y2="38" gradientUnits="userSpaceOnUse"><stop stop-color="#fff"/><stop offset="1" stop-color="#fff" stop-opacity="0"/></linearGradient><clipPath id="a"><path fill="#fff" d="M.58 0h64v64h-64z"/></clipPath></defs></svg>