<svg xmlns="http://www.w3.org/2000/svg" width="105" height="64" fill="none"><g clip-path="url(#a)" transform="rotate(39.48 49.26 35.14)"><mask id="b" width="105" height="63" x="0" y="0" maskUnits="userSpaceOnUse" style="mask-type:luminance"><path fill="#fff" d="M.2 0h104.73v62.84H.22V0Z"/></mask><g mask="url(#b)"><path fill="#38BDF8" fill-rule="evenodd" d="M52.57 0C38.61 0 29.88 6.98 26.4 20.95c5.24-6.99 11.34-9.6 18.33-7.86 3.98 1 6.83 3.89 9.98 7.09 5.13 5.2 11.07 11.24 24.05 11.24 13.97 0 22.7-6.98 26.19-20.95-5.24 6.98-11.35 9.6-18.33 7.86-3.99-1-6.83-3.89-9.98-7.09C71.49 6.04 65.55 0 52.57 0ZM26.4 31.42c-13.96 0-22.7 6.98-26.18 20.94 5.23-6.98 11.34-9.6 18.32-7.85 3.99 1 6.84 3.89 9.99 7.08 5.13 5.21 11.07 11.25 24.05 11.25 13.96 0 22.7-6.99 26.18-20.95-5.23 6.98-11.34 9.6-18.32 7.86-3.99-1-6.83-3.9-9.99-7.09-5.13-5.21-11.07-11.24-24.05-11.24Z" clip-rule="evenodd"/></g></g><defs><clipPath id="a"><path fill="#fff" d="M.2 0h104.74v64H.2z"/></clipPath></defs></svg>