<svg xmlns="http://www.w3.org/2000/svg" width="52" height="46" fill="none"><path fill="#FFFDF9" d="M26 3C14.95 3 6 11.49 6 21.97c0 8.4 5.72 15.48 13.68 18 1 .16 1.37-.4 1.37-.9 0-.46-.03-1.95-.03-3.54-5.02.88-6.32-1.16-6.72-2.23-.23-.54-1.2-2.23-2.05-2.68-.7-.35-1.7-1.23-.03-1.25 1.58-.03 2.7 1.37 3.08 1.94 1.8 2.87 4.68 2.06 5.82 1.56.18-1.23.7-2.06 1.28-2.53-4.45-.48-9.1-2.11-9.1-9.37 0-2.06.77-3.77 2.05-5.1a6.5 6.5 0 0 1 .2-5.02s1.68-.5 5.5 1.94a19.5 19.5 0 0 1 10 0c3.82-2.46 5.5-1.94 5.5-1.94 1.1 2.6.4 4.55.2 5.02a7.13 7.13 0 0 1 2.05 5.1c0 7.28-4.67 8.9-9.12 9.37.72.59 1.34 1.73 1.34 3.5L31 39.07c0 .5.38 1.1 1.38.9a19.99 19.99 0 0 0 9.86-6.92A18.34 18.34 0 0 0 46 21.97C46 11.49 37.05 3 26 3Z"/></svg>