<svg width="65" height="64" viewBox="0 0 65 64" fill="none" xmlns="http://www.w3.org/2000/svg">
<path fill-rule="evenodd" clip-rule="evenodd" d="M11.9058 55.604L10.1698 9.37595C10.1151 7.84929 11.2885 6.55729 12.8125 6.46395L43.6231 4.53729L45.9765 5.33329L49.0365 4.19862L52.1245 4.00529C53.6751 3.90662 55.0125 5.08395 55.1125 6.63462C55.1165 6.69462 55.1178 6.75595 55.1178 6.81729V57.1866C55.1165 58.7426 53.8538 60.0026 52.2978 60.0013C52.2565 60.0013 52.2151 60 52.1751 59.9986L14.5938 58.3106C13.1298 58.2453 11.9618 57.0693 11.9058 55.604Z" fill="#FF4081"/>
<path fill-rule="evenodd" clip-rule="evenodd" d="M49.0335 4.19873L43.6242 4.53473L43.3615 10.8827C43.3522 11.1147 43.5322 11.3094 43.7642 11.3201C43.8615 11.3241 43.9562 11.2947 44.0335 11.2361L46.4975 9.3654L48.5802 11.0067C48.7615 11.1507 49.0268 11.1201 49.1695 10.9387C49.2308 10.8601 49.2628 10.7627 49.2602 10.6627L49.0362 4.20006L49.0335 4.19873ZM44.8228 25.4507C43.8348 26.2201 36.4535 26.7441 36.4535 25.6494C36.6108 21.4694 34.7402 21.2867 33.6988 21.2867C32.7135 21.2867 31.0495 21.5841 31.0495 23.8241C31.0495 26.1054 33.4802 27.3934 36.3335 28.9054C40.3855 31.0534 45.2935 33.6547 45.2935 40.1947C45.2935 46.4667 40.1975 49.9281 33.7015 49.9281C26.9962 49.9281 21.1348 47.2147 21.7962 37.8094C22.0562 36.7067 30.5828 36.9694 30.5828 37.8094C30.4762 41.6907 31.3615 42.8321 33.5962 42.8321C35.3122 42.8321 36.0908 41.8854 36.0908 40.2947C36.0908 37.8841 33.5602 36.4614 30.6455 34.8267C26.7002 32.6121 22.0575 30.0054 22.0575 24.0214C22.0575 18.0521 26.1628 14.0707 33.4922 14.0707C40.8215 14.0707 44.8228 17.9921 44.8228 25.4507Z" fill="white"/>
</svg>
