<svg width="70" height="64" viewBox="0 0 70 64" fill="none" xmlns="http://www.w3.org/2000/svg">
<g clip-path="url(#clip0_408_829)">
<path d="M35.0854 38.7725C38.7577 38.7725 41.7347 35.7404 41.7347 32C41.7347 28.2597 38.7577 25.2275 35.0854 25.2275C31.4131 25.2275 28.436 28.2597 28.436 32C28.436 35.7404 31.4131 38.7725 35.0854 38.7725Z" fill="#087EA4"/>
<path d="M35.0854 47.2379C53.4471 47.2379 68.3321 40.4156 68.3321 31.9998C68.3321 23.584 53.4471 16.7617 35.0854 16.7617C16.7237 16.7617 1.83862 23.584 1.83862 31.9998C1.83862 40.4156 16.7237 47.2379 35.0854 47.2379Z" stroke="#087EA4" stroke-width="3"/>
<path d="M22.1288 39.619C31.3096 55.8152 44.5531 65.5336 51.7088 61.3257C58.8646 57.1178 57.2229 40.5771 48.0421 24.3809C38.8612 8.18475 25.6178 -1.53366 18.4621 2.67422C11.3063 6.88211 12.948 23.4228 22.1288 39.619Z" stroke="#087EA4" stroke-width="3"/>
<path d="M22.1286 24.3811C12.9478 40.5772 11.3061 57.118 18.4619 61.3259C25.6176 65.5337 38.8611 55.8153 48.0419 39.6192C57.2227 23.423 58.8644 6.88229 51.7086 2.67441C44.5529 -1.53348 31.3095 8.18494 22.1286 24.3811Z" stroke="#087EA4" stroke-width="3"/>
</g>
<defs>
<clipPath id="clip0_408_829">
<rect width="69.8182" height="64" fill="white" transform="translate(0.17627)"/>
</clipPath>
</defs>
</svg>
