<svg width="67" height="64" viewBox="0 0 67 64" fill="none" xmlns="http://www.w3.org/2000/svg">
<path fill-rule="evenodd" clip-rule="evenodd" d="M38.6344 1.06152C38.1827 1.06152 37.7631 1.15861 37.3759 1.28806C38.1988 1.83821 38.6506 2.56636 38.8765 3.39158C38.8926 3.50485 38.9249 3.58576 38.941 3.69902C38.9572 3.79611 38.9733 3.89319 38.9733 3.99028C39.0378 5.4142 38.6022 5.59219 38.2956 6.4336C37.8277 7.51773 37.9568 8.68276 38.5215 9.62126C38.5699 9.73452 38.6344 9.86397 38.7151 9.97724C38.102 5.88345 41.5065 5.26858 42.1357 3.99028C42.1841 2.87379 41.2644 2.12947 40.5384 1.61168C39.8446 1.19097 39.2153 1.06152 38.6344 1.06152ZM43.7654 1.98384C43.7008 2.356 43.7492 2.25891 43.7331 2.45309C43.717 2.58253 43.717 2.74435 43.7009 2.87379C43.6686 3.00324 43.6363 3.13269 43.5879 3.26214C43.5557 3.39158 43.5073 3.52103 43.4589 3.65048C43.3943 3.77993 43.3459 3.89319 43.2814 4.02264C43.233 4.08739 43.2007 4.15209 43.1523 4.21681C43.12 4.26536 43.0877 4.3139 43.0555 4.36244C42.9748 4.47571 42.8941 4.58898 42.8135 4.68606C42.7166 4.78315 42.636 4.89641 42.523 4.97732V4.99352C42.4262 5.07443 42.3294 5.17151 42.2165 5.25242C41.8776 5.51131 41.4904 5.70548 41.1354 5.9482C41.0225 6.0291 40.9095 6.09383 40.8127 6.19092C40.6998 6.27182 40.603 6.35272 40.5061 6.44981C40.3932 6.54689 40.3125 6.64398 40.2157 6.75725C40.135 6.85434 40.0382 6.9676 39.9737 7.08087C39.893 7.19413 39.8123 7.3074 39.7478 7.42067C39.6832 7.55011 39.6349 7.66338 39.5703 7.79283C39.5219 7.92227 39.4735 8.03554 39.4412 8.16499C39.3928 8.31062 39.3606 8.44007 39.3283 8.56952C39.3121 8.63427 39.3121 8.71514 39.296 8.77987C39.2799 8.84462 39.2799 8.90931 39.2638 8.97404C39.2638 9.10349 39.2476 9.24912 39.2476 9.37856C39.2476 9.47565 39.2476 9.57273 39.2638 9.66982C39.2638 9.79927 39.28 9.92871 39.3122 10.0743C39.3284 10.2038 39.3606 10.3332 39.3929 10.4627C39.4413 10.5921 39.4736 10.7216 39.522 10.851C39.5542 10.9319 39.6026 11.0128 39.6349 11.0776L35.9239 9.63746C35.2946 9.45947 34.6815 9.29766 34.0522 9.15203C33.7134 9.07113 33.3745 8.99022 33.0357 8.90932C32.0676 8.71514 31.0833 8.56952 30.0991 8.47243C30.0669 8.47243 30.0507 8.45623 30.0184 8.45623C29.0503 8.35915 28.0984 8.3106 27.1303 8.3106C26.4203 8.3106 25.7104 8.34294 25.0166 8.39151C24.0323 8.45626 23.0481 8.58568 22.0639 8.74748C21.8218 8.77982 21.5798 8.8284 21.3378 8.87694C20.8376 8.97402 20.3535 9.08729 19.8856 9.20056C19.6436 9.26531 19.4016 9.33 19.1595 9.39472C18.9175 9.49181 18.6916 9.60508 18.4657 9.70217C18.2882 9.78307 18.1108 9.86397 17.9333 9.94488C17.901 9.96108 17.8687 9.96108 17.8526 9.97722C17.6913 10.0581 17.546 10.1228 17.4008 10.2038C17.3524 10.22 17.3201 10.2361 17.2879 10.2523C17.1104 10.3332 16.9329 10.4303 16.7877 10.5112C16.6747 10.5597 16.5618 10.6245 16.465 10.673C16.4166 10.7053 16.352 10.7378 16.3198 10.7539C16.1746 10.8348 16.0293 10.9157 15.9003 10.9966C15.7551 11.0775 15.626 11.1584 15.513 11.2393C15.4001 11.3202 15.2871 11.385 15.1903 11.4659C15.1742 11.4821 15.1581 11.4821 15.1419 11.4982C15.0451 11.563 14.9322 11.6438 14.8354 11.7247C14.8354 11.7247 14.8192 11.7409 14.8031 11.7571C14.7224 11.8218 14.6418 11.8865 14.5611 11.9512C14.5288 11.9674 14.4965 11.9998 14.4643 12.016C14.3836 12.0807 14.3029 12.1616 14.2223 12.2263C14.2061 12.2587 14.1738 12.2749 14.1577 12.2911C14.0609 12.3882 13.9641 12.4691 13.8673 12.5662C13.8511 12.5662 13.8511 12.5824 13.835 12.5985C13.7382 12.6794 13.6414 12.7765 13.5446 12.8736C13.5284 12.8898 13.5284 12.9059 13.5123 12.9059C13.4317 12.9868 13.351 13.0677 13.2703 13.1648C13.2381 13.1972 13.1896 13.2296 13.1574 13.2619C13.0767 13.359 12.9799 13.4561 12.8831 13.5532C12.8669 13.5855 12.8347 13.6017 12.8185 13.6341C12.6894 13.7635 12.5765 13.893 12.4474 14.0224C12.4312 14.0386 12.4152 14.0547 12.399 14.071C12.1408 14.346 11.8665 14.6211 11.5761 14.8638C11.2857 15.1227 10.9791 15.3654 10.6725 15.5758C10.3498 15.8023 10.0433 15.9965 9.70444 16.1907C9.38174 16.3686 9.0429 16.5305 8.68793 16.6761C8.34909 16.8217 7.99413 16.9512 7.63916 17.0644C6.96148 17.2101 6.26768 17.4851 5.67068 17.5337C5.5416 17.5337 5.39638 17.566 5.26731 17.5822C5.12209 17.6146 4.99301 17.647 4.86393 17.6793C4.73485 17.7278 4.60577 17.7764 4.47669 17.8249C4.34761 17.8735 4.21853 17.9382 4.08945 18.0029C3.9765 18.0838 3.84743 18.1486 3.73448 18.2295C3.62154 18.3104 3.50859 18.4074 3.41178 18.5045C3.29883 18.5854 3.18589 18.6987 3.08908 18.7958C2.99226 18.9091 2.89545 19.0061 2.81478 19.1194C2.73411 19.2489 2.6373 19.3621 2.57275 19.4916C2.49208 19.6048 2.41141 19.7343 2.34686 19.8637C2.2823 20.0094 2.21778 20.1388 2.16938 20.2844C2.12097 20.4139 2.07257 20.5595 2.02416 20.7051C1.99192 20.8346 1.9596 20.964 1.94349 21.0935C1.94349 21.1097 1.92733 21.1258 1.92733 21.142C1.89508 21.2877 1.89508 21.4818 1.87892 21.5789C1.86276 21.6922 1.84668 21.7893 1.84668 21.9025C1.84668 21.9673 1.84668 22.0482 1.86284 22.1129C1.879 22.2262 1.89508 22.3232 1.92741 22.4203C1.95965 22.5174 1.99197 22.6145 2.04035 22.7116V22.7278C2.08875 22.8249 2.15329 22.922 2.21783 23.0191C2.2824 23.1161 2.34692 23.2132 2.42759 23.3103C2.50826 23.3912 2.60507 23.4883 2.70188 23.5692C2.7987 23.6663 2.89551 23.7472 3.00845 23.8281C3.39569 24.1679 3.4925 24.2812 3.99269 24.5401C4.07336 24.5886 4.15404 24.621 4.25085 24.6695C4.26702 24.6695 4.2831 24.6857 4.29926 24.6857C4.29926 24.7181 4.29926 24.7343 4.31542 24.7666C4.33158 24.8961 4.36383 25.0255 4.39609 25.155C4.42834 25.3006 4.47677 25.4301 4.52518 25.5433C4.57359 25.6404 4.60585 25.7375 4.65426 25.8346C4.67042 25.8669 4.6865 25.8993 4.70266 25.9155C4.76723 26.0449 4.83174 26.1582 4.89628 26.2715C4.97696 26.3847 5.05763 26.498 5.13831 26.6113C5.21898 26.7083 5.31579 26.8216 5.4126 26.9187C5.50941 27.0158 5.60622 27.0967 5.71917 27.1938C5.71917 27.1938 5.73533 27.21 5.75142 27.21C5.84823 27.2909 5.94504 27.3718 6.04185 27.4365C6.15479 27.5174 6.26774 27.5822 6.39682 27.6469C6.50977 27.7116 6.63884 27.7763 6.76792 27.8249C6.86473 27.8734 6.97767 27.9058 7.09062 27.9381C7.10679 27.9544 7.12287 27.9544 7.15519 27.9705C7.21976 27.9867 7.3004 28.0028 7.36494 28.019C7.31654 28.8928 7.30037 29.718 7.42951 30.0093C7.57472 30.3329 8.28466 29.3459 8.9946 28.2132C8.89779 29.3297 8.83325 30.6403 8.9946 31.0287C9.17209 31.4332 10.1402 30.1711 10.9792 28.7795C22.4189 26.1259 32.8583 34.0545 33.9555 45.2517C33.7457 43.5042 31.5998 42.5333 30.6156 42.7761C30.1315 43.9735 29.3086 45.5106 27.9855 46.4653C28.0985 45.3974 28.0501 44.2971 27.8242 43.2291C27.4692 44.7178 26.7754 46.1093 25.8234 47.3067C24.2906 47.42 22.7578 46.6757 21.951 45.5592C21.8865 45.5106 21.8704 45.4136 21.8219 45.3488C21.7735 45.2356 21.7251 45.1223 21.6929 45.009C21.6445 44.8958 21.6122 44.7825 21.5961 44.6692C21.5799 44.556 21.5799 44.4427 21.5799 44.3133C21.5799 44.2323 21.5799 44.1514 21.5799 44.0705C21.5961 43.9573 21.6283 43.844 21.6606 43.7307C21.6928 43.6175 21.7251 43.5042 21.7735 43.3909C21.8381 43.2777 21.8865 43.1644 21.9671 43.0511C22.2414 42.2744 22.2414 41.6434 21.7413 41.2712C21.6444 41.2065 21.5476 41.158 21.4347 41.1094C21.3701 41.0932 21.2895 41.0609 21.2249 41.0447C21.1765 41.0285 21.1443 41.0123 21.0959 40.9961C20.9829 40.9638 20.87 40.9314 20.757 40.9152C20.6441 40.8829 20.5311 40.8667 20.4182 40.8667C20.3052 40.8505 20.1761 40.8343 20.0632 40.8343C19.9825 40.8343 19.9019 40.8505 19.8212 40.8505C19.6921 40.8505 19.5792 40.8668 19.4662 40.8991C19.3533 40.9153 19.2403 40.9314 19.1274 40.9638C19.0144 40.9962 18.9015 41.0286 18.7885 41.0771C18.6756 41.1256 18.5788 41.1742 18.4658 41.2227C18.369 41.2713 18.2722 41.336 18.1593 41.3845C14.3998 43.844 16.6426 49.6045 19.208 51.2711C18.2399 51.4491 17.2557 51.6595 16.9814 51.8698C16.9653 51.886 16.9492 51.9021 16.9492 51.9021C17.643 52.3228 18.3691 52.6788 19.1274 52.9863C20.16 53.3261 21.2572 53.6335 21.7413 53.763V53.7792C23.0805 54.0542 24.4358 54.1513 25.8073 54.0704C32.9551 53.5688 38.8121 48.1158 39.8771 40.9315C39.9093 41.0771 39.9416 41.2065 39.9739 41.3522C40.0223 41.6434 40.0868 41.9509 40.1191 42.2583V42.2745C40.1513 42.4202 40.1675 42.5658 40.1836 42.6952V42.76C40.1998 42.9056 40.2159 43.0512 40.2159 43.1807C40.232 43.3587 40.2481 43.5367 40.2481 43.7147V43.9736C40.2481 44.0545 40.2643 44.1515 40.2643 44.2325C40.2643 44.3295 40.2481 44.4266 40.2481 44.5237V44.7502C40.2481 44.8635 40.232 44.9606 40.232 45.0739C40.232 45.1386 40.232 45.2033 40.2158 45.2842C40.2158 45.3975 40.1996 45.5107 40.1996 45.6402C40.1835 45.6887 40.1835 45.7373 40.1835 45.7858C40.1673 45.9153 40.1512 46.0285 40.1351 46.158C40.1351 46.2065 40.1351 46.2551 40.1189 46.3036C40.1027 46.4654 40.0705 46.6111 40.0543 46.7729V46.7891V46.8053C40.0221 46.9509 39.9898 47.1127 39.9575 47.2584V47.3069C39.9253 47.4525 39.893 47.5982 39.8607 47.7438C39.8607 47.76 39.8446 47.7923 39.8446 47.8085C39.8123 47.9542 39.78 48.0998 39.7316 48.2454V48.294C39.6832 48.4558 39.6348 48.6014 39.6025 48.747C39.5864 48.7632 39.5864 48.7794 39.5864 48.7794C39.538 48.9412 39.4896 49.103 39.4412 49.2648C39.3766 49.4266 39.3282 49.5722 39.2637 49.734C39.1991 49.8959 39.1507 50.0577 39.0862 50.2033C39.0216 50.3651 38.9571 50.5107 38.8926 50.6725H38.8764C38.8118 50.8182 38.7473 50.98 38.6666 51.1256C38.6505 51.1742 38.6344 51.2065 38.6182 51.2389C38.6021 51.2551 38.6021 51.2712 38.586 51.2874C37.5372 53.4071 35.9882 55.2679 34.0521 56.7242C33.923 56.8051 33.7939 56.9022 33.6648 56.9993C33.6326 57.0316 33.5841 57.0478 33.5519 57.0802C33.4389 57.1611 33.326 57.242 33.1969 57.3229L33.2453 57.42H33.2615C33.4873 57.3877 33.7132 57.3553 33.9391 57.3229H33.9553C34.3748 57.2582 34.7943 57.1773 35.2138 57.0964C35.3268 57.0802 35.4558 57.0478 35.5688 57.0155C35.6495 56.9992 35.714 56.9831 35.7947 56.9669C35.9076 56.9507 36.0206 56.9184 36.1335 56.9022C36.2303 56.8699 36.3271 56.8536 36.4239 56.8213C38.0374 56.4329 39.6026 55.899 41.1031 55.2679C38.5376 58.7792 35.1009 61.6108 31.0832 63.4717C32.9388 63.3422 34.7943 63.0348 36.5853 62.517C43.0877 60.5914 48.5575 56.2064 51.8329 50.3003C51.1714 54.0382 49.6869 57.598 47.4926 60.7047C49.0577 59.6691 50.4937 58.4717 51.8006 57.1125C55.4149 53.3262 57.7867 48.5205 58.5935 43.3587C59.1421 45.9153 59.3034 48.5528 59.0614 51.1579C70.7109 34.8637 60.0295 17.9708 55.5601 13.521C55.5439 13.4887 55.5278 13.4725 55.5278 13.4401C55.5117 13.4563 55.5117 13.4563 55.5117 13.4724C55.5117 13.4562 55.5117 13.4562 55.4955 13.4401C55.4955 13.6343 55.4794 13.8284 55.4633 14.0226C55.4149 14.3948 55.3665 14.7508 55.3019 15.1067C55.2212 15.4627 55.1244 15.8187 55.0276 16.1747C54.9147 16.5145 54.7856 16.8705 54.6404 17.2103C54.4952 17.5339 54.3338 17.8737 54.1563 18.1973C53.9788 18.5048 53.7852 18.8284 53.5755 19.1196C53.3657 19.4271 53.1398 19.7183 52.9139 19.9934C52.6719 20.2847 52.4137 20.5436 52.1556 20.8024C51.9942 20.9481 51.849 21.0775 51.6877 21.207C51.5586 21.3202 51.4456 21.4173 51.3166 21.5306C51.0261 21.7571 50.7357 21.9675 50.413 22.1616C50.1064 22.3558 49.7837 22.55 49.461 22.7118C49.1222 22.8736 48.7834 23.0192 48.4445 23.1649C48.1057 23.2943 47.7507 23.4076 47.3957 23.5047C47.0408 23.6017 46.6697 23.6827 46.3147 23.7474C45.9436 23.8121 45.5725 23.8445 45.2175 23.8768C44.9594 23.893 44.7012 23.9092 44.443 23.9092C44.0719 23.9092 43.7008 23.8768 43.3459 23.8444C42.9748 23.8121 42.6036 23.7635 42.2487 23.6826C41.8776 23.6179 41.5226 23.5208 41.1676 23.4075H41.1515C41.5064 23.3752 41.8614 23.3428 42.2164 23.2781C42.5875 23.2133 42.9425 23.1325 43.2974 23.0354C43.6524 22.9383 44.0074 22.825 44.3462 22.6956C44.7012 22.5661 45.04 22.4043 45.3627 22.2425C45.7016 22.0807 46.0081 21.9027 46.3308 21.7085C46.6374 21.4982 46.9439 21.2878 47.2344 21.0613C47.5248 20.8348 47.7991 20.592 48.0573 20.3331C48.3316 20.0904 48.5736 19.8154 48.8156 19.5403C49.0576 19.249 49.2835 18.9578 49.4933 18.6665C49.5255 18.618 49.5579 18.5532 49.5901 18.5047C49.7514 18.2458 49.9128 17.9869 50.058 17.728C50.2355 17.4044 50.3968 17.0808 50.5421 16.741C50.6873 16.4012 50.8164 16.0614 50.9293 15.7054C51.0422 15.3656 51.1229 15.0096 51.2036 14.6536C51.2682 14.2815 51.3327 13.9255 51.3649 13.5695C51.3972 13.1973 51.4295 12.8252 51.4295 12.4692C51.4295 12.2103 51.4133 11.9514 51.3973 11.6925C51.365 11.3203 51.3166 10.9644 51.2682 10.6084C51.2036 10.2362 51.123 9.88024 51.0262 9.52426C50.9132 9.18446 50.8003 8.82848 50.6712 8.48868C50.5421 8.14888 50.3808 7.80908 50.2194 7.48545C50.0419 7.16184 49.8644 6.83822 49.6708 6.53078C49.4611 6.22335 49.2513 5.93209 49.0254 5.64083C48.7834 5.36575 48.5414 5.09067 48.2832 4.8156C48.1541 4.68615 48.0089 4.54052 47.8637 4.41108C47.1376 3.84474 46.3793 3.31077 45.6209 2.82534C45.508 2.76059 45.4112 2.71207 45.2982 2.66353C44.7658 2.32373 44.2656 2.14564 43.7654 1.98384Z" fill="#E0234E"/>
</svg>
