<svg width="64" height="64" viewBox="0 0 64 64" fill="none" xmlns="http://www.w3.org/2000/svg">
<path d="M56.2665 29.4665L34.5332 7.73317C33.8665 7.0665 32.9332 6.6665 31.9998 6.6665C31.0665 6.6665 30.1332 7.0665 29.4665 7.73317L24.7998 12.3998L30.2665 17.8665C30.7998 17.5998 31.3332 17.4665 31.9998 17.4665C34.2665 17.4665 35.9998 19.1998 35.9998 21.4665C35.9998 22.1332 35.8665 22.6665 35.5998 23.1998L40.9332 28.5332C41.4665 28.2665 41.9998 28.1332 42.6665 28.1332C44.9332 28.1332 46.6665 29.8665 46.6665 32.1332C46.6665 34.3998 44.9332 36.1332 42.6665 36.1332C40.3998 36.1332 38.6665 34.3998 38.6665 32.1332C38.6665 31.4665 38.7998 30.9332 39.0665 30.3998L33.7332 25.0665C33.5998 25.0665 33.4665 25.1998 33.3332 25.1998V39.0665C34.9332 39.5998 35.9998 41.0665 35.9998 42.7998C35.9998 45.0665 34.2665 46.7998 31.9998 46.7998C29.7332 46.7998 27.9998 45.0665 27.9998 42.7998C27.9998 41.0665 29.0665 39.5998 30.6665 39.0665V25.0665C29.0665 24.5332 27.9998 23.0665 27.9998 21.3332C27.9998 20.6665 28.1332 20.1332 28.3998 19.5998L22.9332 14.1332L7.73317 29.4665C7.0665 30.1332 6.6665 31.0665 6.6665 31.9998C6.6665 32.9332 7.0665 33.8665 7.73317 34.5332L29.4665 56.2665C30.1332 56.9332 31.0665 57.3332 31.9998 57.3332C32.9332 57.3332 33.8665 56.9332 34.5332 56.2665L56.2665 34.5332C56.9332 33.8665 57.3332 32.9332 57.3332 31.9998C57.3332 31.0665 56.9332 30.1332 56.2665 29.4665Z" fill="#F4511E"/>
</svg>
