<svg xmlns="http://www.w3.org/2000/svg" width="46" height="46" fill="none"><path fill="#FFFDF9" d="M5.75 8.22a2.5 2.5 0 0 1 2.53-2.47h29.44a2.5 2.5 0 0 1 2.53 2.47v29.56a2.5 2.5 0 0 1-2.53 2.47H8.28a2.5 2.5 0 0 1-2.53-2.47V8.22Zm10.66 26.41V19.05h-5.18v15.58h5.18Zm-2.59-17.7c1.8 0 2.93-1.2 2.93-2.7-.03-1.53-1.12-2.69-2.9-2.69-1.77 0-2.92 1.17-2.92 2.7 0 1.49 1.12 2.68 2.86 2.68h.03Zm10.58 17.7v-8.7c0-.47.04-.93.18-1.26.37-.93 1.22-1.9 2.65-1.9 1.88 0 2.62 1.43 2.62 3.53v8.33h5.18V25.7c0-4.8-2.55-7.02-5.96-7.02a5.14 5.14 0 0 0-4.67 2.58v.05h-.03l.03-.05v-2.2h-5.17c.06 1.45 0 15.57 0 15.57h5.17Z"/></svg>