<svg width="50" height="50" viewBox="0 0 39 41" fill="none" xmlns="http://www.w3.org/2000/svg">
    <path d="M38.7825 27.6519C38.574 27.4592 38.2683 27.4214 38.0193 27.5545C30.8895 31.3803 22.1396 28.8355 18.1024 21.7606C14.0651 14.6856 16.2607 5.74791 23.101 1.41275C23.3401 1.26151 23.4594 0.974046 23.3986 0.695695C23.3383 0.416889 23.1113 0.206418 22.8317 0.170429C18.3996 -0.405861 14.0106 0.48568 10.1369 2.74893C5.45121 5.4846 2.0993 9.90449 0.698925 15.1922C-0.701456 20.48 0.0171963 26.0028 2.72295 30.7439C5.42825 35.4849 9.79644 38.8762 15.0229 40.293C16.7682 40.7658 18.5391 41 20.2988 41C23.8088 41 27.2733 40.0688 30.3942 38.2457C34.2671 35.9833 37.2254 32.583 38.9482 28.4118C39.0572 28.1485 38.9905 27.8446 38.7825 27.6519Z" fill="#FFFDF9"/>
</svg>
