<svg xmlns="http://www.w3.org/2000/svg" width="65" height="64" viewBox="0 0 65 64" fill="none"><g clip-path="url(#a)"><path fill="#3178C6" d="M61.09 0h-58a3 3 0 0 0-3 3v58a3 3 0 0 0 3 3h58a3 3 0 0 0 3-3V3a3 3 0 0 0-3-3Z"/><path fill="#fff" fill-rule="evenodd" d="M37.22 49.73v7.02c1.14.58 2.48 1.02 4.03 1.31 1.55.3 3.19.44 4.9.44 1.68 0 3.27-.16 4.78-.48 1.5-.32 2.83-.85 3.97-1.6a8.09 8.09 0 0 0 2.7-2.88c.66-1.2.99-2.67.99-4.42 0-1.27-.2-2.38-.57-3.34a7.82 7.82 0 0 0-1.64-2.55 12 12 0 0 0-2.57-2.01c-1-.6-2.12-1.15-3.37-1.68-.92-.38-1.74-.75-2.47-1.1-.73-.36-1.35-.73-1.86-1.1-.5-.37-.9-.77-1.18-1.18a2.5 2.5 0 0 1-.41-1.42c0-.48.12-.91.37-1.3s.6-.72 1.05-1c.45-.27 1-.49 1.66-.64a9.6 9.6 0 0 1 2.18-.23 13.81 13.81 0 0 1 3.8.53c.66.19 1.3.42 1.92.7.62.27 1.19.6 1.71.96V27.2c-1.06-.41-2.22-.72-3.48-.91-1.26-.2-2.7-.3-4.34-.3-1.66 0-3.23.18-4.72.54-1.49.35-2.8.91-3.92 1.67a8.36 8.36 0 0 0-2.68 2.9 8.54 8.54 0 0 0-.98 4.23c0 2.09.6 3.87 1.8 5.34 1.2 1.48 3.03 2.73 5.47 3.75.97.4 1.86.78 2.7 1.16.82.38 1.54.78 2.14 1.19.6.4 1.09.85 1.43 1.33a2.73 2.73 0 0 1 .2 2.9c-.22.4-.55.73-1 1.01-.44.29-.99.51-1.65.67-.67.16-1.44.24-2.33.24a13.23 13.23 0 0 1-8.63-3.2ZM25.44 32.28h9.15V26.5H9.09v5.78h9.1V58h7.25V32.28Z" clip-rule="evenodd"/></g><defs><clipPath id="a"><path fill="#fff" d="M.09 0h64v64h-64z"/></clipPath></defs></svg>