<svg xmlns="http://www.w3.org/2000/svg" width="65" height="64" fill="none"><path fill="#FFD600" d="M.5 64V0h64v64H.5Z"/><path fill="#000001" d="M42.35 47.9c1.23 2 2.56 3.92 5.4 3.92 2.37 0 3.62-1.18 3.62-2.82 0-1.96-1.29-2.65-3.9-3.8l-1.44-.6c-4.14-1.76-6.9-3.96-6.9-8.6 0-4.3 3.28-7.55 8.41-7.55 3.65 0 6.27 1.26 8.16 4.57l-4.47 2.86c-.98-1.76-2.04-2.45-3.69-2.45-1.68 0-2.75 1.06-2.75 2.45 0 1.71 1.07 2.4 3.53 3.47l1.44.6c4.88 2.09 7.63 4.2 7.63 8.98 0 5.14-4.06 7.96-9.51 7.96-5.33 0-8.36-2.68-10.05-5.99l4.52-3Zm-20.6.15c.9 1.61 2.26 2.85 4.23 2.85 1.88 0 2.96-.74 2.96-3.63V28.44h5.93v19.74c0 5.99-3.47 8.7-8.54 8.7-4.58 0-7.89-3.1-9.24-5.98l4.66-2.85Z"/></svg>