<svg xmlns="http://www.w3.org/2000/svg" width="57" height="72" fill="none" class="block h-20" data-astro-cid-j5sqotno="true" data-hk="0-0"><path fill="#fff" d="M18.54 61.33c-3.25-2.98-4.2-9.23-2.84-13.75 2.34 2.85 5.6 3.76 8.96 4.27 5.2.78 10.3.49 15.13-1.89.56-.27 1.07-.63 1.67-1 .45 1.31.57 2.64.41 4a10.95 10.95 0 0 1-4.62 7.77c-1.04.77-2.15 1.46-3.22 2.18-3.3 2.24-4.2 4.86-2.96 8.68l.13.41a8.69 8.69 0 0 1-3.86-3.3 9.3 9.3 0 0 1-1.5-5.05c0-.89 0-1.79-.12-2.66-.3-2.14-1.3-3.1-3.19-3.16a3.73 3.73 0 0 0-3.87 3.04l-.12.45ZM0 46.82s9.62-4.69 19.26-4.69l7.28-22.53c.27-1.1 1.06-1.84 1.96-1.84.9 0 1.7.75 1.96 1.84l7.28 22.53c11.42 0 19.26 4.7 19.26 4.7L40.63 2.16C40.16.85 39.37 0 38.3 0H18.7c-1.07 0-1.83.85-2.33 2.17L0 46.82Z"/></svg>