<svg xmlns="http://www.w3.org/2000/svg" width="65" height="64" viewBox="0 0 65 64" fill="none"><g clip-path="url(#a)"><path fill="#58D09E" d="M1.42 40.48A32.03 32.03 0 0 1 .3 32a32.2 32.2 0 0 1 20.5-29.85L22.4 6.3a27.72 27.72 0 0 0-17.65 25.7c0 2.47.33 4.92.98 7.29l-4.3 1.18Z"/><path fill="#58D09E" d="M20.58 2.25A32.03 32.03 0 0 1 28.9.23a32.2 32.2 0 0 1 31.84 17.28l-3.98 2.03a27.72 27.72 0 0 0-27.4-14.87c-2.45.26-4.86.85-7.14 1.74l-1.63-4.16Z"/><path fill="#fff" d="M46.93 55.27A27.55 27.55 0 0 0 59.6 29.55a27.56 27.56 0 0 0-3-10.36l3.95-2.07a32 32 0 0 1 3.5 12.04 32 32 0 0 1-14.72 29.88l-2.4-3.77ZM22.79 25.4c2.59 0 4.7 1.38 5.78 3.79l.09.19L33 27.9l-.1-.22a10.7 10.7 0 0 0-10.12-6.65c-3.2 0-5.81 1.03-7.97 3.14A10.58 10.58 0 0 0 11.6 32c0 3.08 1.08 5.7 3.22 7.8a10.84 10.84 0 0 0 7.97 3.14A10.7 10.7 0 0 0 32.9 36.3l.1-.22-4.36-1.48-.08.2a6.03 6.03 0 0 1-5.78 3.78 6.1 6.1 0 0 1-4.54-1.87 6.5 6.5 0 0 1-1.83-4.7c0-1.87.6-3.42 1.83-4.73a6.07 6.07 0 0 1 4.54-1.88Z"/><path fill="#fff" d="m50.03 21.43-6.2 15.68-6.24-15.68h-5.1l8.75 21.4L35 57.94l4.46.89 15.38-37.39h-4.82Z"/><path fill="#fff" d="m35.81 55.99-1.09 2.63c-.21.52-.7.87-1.26.9l-1.11.02A27.77 27.77 0 0 1 5.42 38.08l-4.35.98A32.1 32.1 0 0 0 32.3 64h.06c.43 0 .86-.01 1.28-.03a5.92 5.92 0 0 0 5.22-3.66l1.42-3.44L35.8 56Z"/></g><defs><clipPath id="a"><path fill="#fff" d="M.29 0h64v64h-64z"/></clipPath></defs></svg>