<svg xmlns="http://www.w3.org/2000/svg" width="65" height="64" viewBox="0 0 65 64" fill="none"><path fill="#F06292" d="M53.37 34.6c-2.05.02-3.83.51-5.31 1.25-.55-1.1-1.1-2.05-1.2-2.76-.1-.83-.23-1.32-.1-2.31.14-.99.7-2.39.7-2.5 0-.1-.13-.6-1.31-.61-1.18-.01-2.2.23-2.31.54-.12.31-.35 1.01-.5 1.75-.2 1.07-2.35 4.9-3.58 6.9a7.18 7.18 0 0 1-.8-2.02c-.12-.83-.24-1.33-.11-2.31.13-1 .7-2.4.7-2.5-.01-.1-.13-.6-1.32-.61-1.18-.01-2.19.22-2.3.54-.13.3-.26 1.04-.5 1.74s-3.1 7.09-3.85 8.74c-.39.85-.72 1.52-.95 1.99l-.04.08-.32.6v.01c-.16.3-.33.56-.41.56-.06 0-.18-.77.02-1.82.43-2.22 1.45-5.67 1.44-5.79 0-.06.2-.66-.67-.98-.83-.3-1.13.2-1.2.21-.08 0-.13.18-.13.18s.93-3.88-1.77-3.88c-1.7 0-4.04 1.85-5.19 3.52l-3.94 2.16-1.9 1.04-.12-.13c-3.28-3.5-9.34-5.98-9.08-10.68.09-1.7.68-6.2 11.64-11.67 8.97-4.47 16.16-3.24 17.4-.51 1.77 3.9-3.84 11.14-13.16 12.18-3.55.4-5.42-.98-5.89-1.49-.48-.54-.56-.56-.74-.46-.3.16-.11.64 0 .92.28.73 1.42 2.01 3.37 2.65 1.7.56 5.88.87 10.92-1.08 5.65-2.18 10.06-8.26 8.76-13.34-1.32-5.16-9.88-6.86-17.99-3.98-4.83 1.71-10.05 4.4-13.8 7.92-4.47 4.17-5.18 7.8-4.9 9.33 1.05 5.4 8.49 8.9 11.47 11.51l-.41.23c-1.5.74-7.17 3.7-8.58 6.84-1.61 3.56.25 6.1 1.49 6.45 3.82 1.07 7.75-.85 9.86-4 2.1-3.14 1.85-7.24.88-9.1l-.04-.08 1.17-.69c.76-.44 1.5-.86 2.16-1.21-.37 1-.63 2.18-.77 3.9-.16 2.02.66 4.63 1.75 5.66.48.45 1.05.46 1.41.46 1.26 0 1.84-1.05 2.47-2.29.78-1.52 1.46-3.3 1.46-3.3s-.86 4.8 1.5 4.8c.85 0 1.72-1.12 2.1-1.69v.01l.07-.11.14-.22v-.03c.35-.6 1.11-1.96 2.26-4.21 1.48-2.91 2.9-6.56 2.9-6.56s.14.9.57 2.37c.26.86.8 1.82 1.22 2.74a32.02 32.02 0 0 1-1.45 1.9c-1.17 1.4-2.56 3-2.75 3.45-.22.54-.17.94.26 1.26.3.24.86.27 1.44.24a6.56 6.56 0 0 0 2.15-.5c.57-.2 1.23-.51 1.86-.97a4.12 4.12 0 0 0 1.77-3.65 7.4 7.4 0 0 0-.67-2.58l.3-.45c1.82-2.65 3.22-5.55 3.22-5.55s.13.89.57 2.36c.22.75.65 1.56 1.04 2.36a10.09 10.09 0 0 0-3.12 4.04c-.68 1.95-.15 2.83.84 3.03.45.1 1.1-.11 1.57-.31.6-.2 1.31-.53 1.98-1.02 1.15-.85 2.25-2.03 2.19-3.63a6.8 6.8 0 0 0-.5-2.14c1.44-.6 3.31-.94 5.69-.66 5.1.6 6.1 3.78 5.91 5.12a3.37 3.37 0 0 1-1.62 2.28c-.36.23-.46.3-.44.47.05.24.21.23.52.18.42-.08 2.68-1.09 2.77-3.55.13-3.13-2.87-6.56-8.17-6.53ZM14.04 47.88C12.35 49.7 10 50.4 8.98 49.82c-1.1-.63-.66-3.35 1.41-5.3 1.26-1.2 2.9-2.3 3.98-2.97l1.05-.63.11-.07.26-.16a7.32 7.32 0 0 1-1.75 7.18Zm12.31-8.37c-.58 1.43-1.82 5.1-2.57 4.9-.64-.16-1.03-2.95-.12-5.7a12.7 12.7 0 0 1 2-3.68c.92-1.03 1.94-1.37 2.19-.95.31.54-1.13 4.53-1.5 5.43Zm10.18 4.85c-.25.13-.48.21-.59.15-.08-.05.1-.22.1-.22s1.28-1.37 1.78-2l1-1.26v.14c0 1.64-1.59 2.75-2.3 3.2Zm7.83-1.79c-.18-.13-.15-.56.46-1.9.24-.51.79-1.4 1.74-2.24.11.35.18.68.18.99-.02 2.06-1.49 2.83-2.38 3.15Z"/></svg>