<svg xmlns="http://www.w3.org/2000/svg" width="64" height="64" fill="none"><path fill="#fff" d="M63.99 31.3A32.07 32.07 0 0 0 48.62 4.7C41.35.15 32.16-1.07 23.89 1.02 11.43 4.17 1.5 15.45.24 28.3c-1.57 12.14 4.57 24.77 15.07 31 10.27 6.44 24.25 6.17 34.3-.6a32.15 32.15 0 0 0 14.37-27.4ZM33.77 59.25c-14.54 1.44-28.6-10.88-29-25.47-1.1-11.85 6.7-23.56 17.85-27.48C38.25.03 57.46 11.62 59.07 28.38c2.52 15.06-10.02 30.4-25.3 30.87ZM24.2 30.38l21.03-17.2-11.36 17.24c-3.23 0-6.45 0-9.67-.04Zm5.91 3.18 9.67.04-21.03 17.25L30.1 33.56Z"/></svg>