<svg xmlns="http://www.w3.org/2000/svg" width="64" height="64" fill="none"><path fill="#F4511E" d="M62.51 28.88 35.23 1.59A4.58 4.58 0 0 0 32.05.26c-1.17 0-2.35.5-3.18 1.33L23 7.46l6.86 6.86c.67-.34 1.34-.5 2.18-.5a4.93 4.93 0 0 1 5.02 5.02c0 .83-.17 1.5-.5 2.17l6.7 6.7c.66-.34 1.33-.5 2.17-.5a4.93 4.93 0 0 1 5.02 5.02 4.93 4.93 0 0 1-5.02 5.02 4.93 4.93 0 0 1-5.02-5.02c0-.84.16-1.5.5-2.18l-6.7-6.7c-.16 0-.33.17-.5.17v17.41c2.01.67 3.35 2.51 3.35 4.69a4.93 4.93 0 0 1-5.02 5.02 4.93 4.93 0 0 1-5.02-5.02 4.88 4.88 0 0 1 3.34-4.69V23.36c-2-.68-3.34-2.51-3.34-4.69 0-.84.16-1.5.5-2.18l-6.86-6.86L1.58 28.88c-.83.84-1.33 2-1.33 3.18 0 1.17.5 2.34 1.33 3.18l27.29 27.28c.83.84 2 1.34 3.18 1.34 1.17 0 2.34-.5 3.18-1.34L62.5 35.24a4.58 4.58 0 0 0 1.34-3.18c0-1.17-.5-2.34-1.34-3.18Z"/></svg>