<svg xmlns="http://www.w3.org/2000/svg" width="31" height="64" fill="none"><g clip-path="url(#a)"><path fill="#00684A" d="M21.56 7.13c-2.7-3.18-5.02-6.42-5.5-7.1a.12.12 0 0 0-.17 0c-.47.68-2.8 3.92-5.5 7.1-23.15 29.4 3.66 49.25 3.66 49.25l.22.15c.2 3.06.7 7.47.7 7.47h2s.5-4.38.7-7.47l.22-.17c.03 0 26.83-19.82 3.67-49.23Zm-5.6 48.8s-1.19-1.02-1.51-1.54v-.05l1.44-32.02c0-.1.15-.1.15 0l1.45 32.02v.05c-.32.52-1.52 1.54-1.52 1.54Z"/></g><defs><clipPath id="a"><path fill="#fff" d="M.97 0h29.77v64H.97z"/></clipPath></defs></svg>