<svg xmlns="http://www.w3.org/2000/svg" width="70" height="64" viewBox="0 0 70 64" fill="none"><g clip-path="url(#a)"><path fill="#087EA4" d="M35.09 38.77A6.71 6.71 0 0 0 41.73 32a6.71 6.71 0 0 0-6.64-6.77A6.71 6.71 0 0 0 28.44 32a6.71 6.71 0 0 0 6.65 6.77Z"/><path stroke="#087EA4" stroke-width="3" d="M35.09 47.24c18.36 0 33.24-6.82 33.24-15.24S53.45 16.76 35.1 16.76C16.72 16.76 1.84 23.58 1.84 32s14.88 15.24 33.25 15.24Z"/><path stroke="#087EA4" stroke-width="3" d="M22.13 39.62c9.18 16.2 22.42 25.91 29.58 21.7 7.15-4.2 5.51-20.74-3.67-36.94S25.62-1.53 18.46 2.68c-7.15 4.2-5.51 20.74 3.67 36.94Z"/><path stroke="#087EA4" stroke-width="3" d="M22.13 24.38c-9.18 16.2-10.82 32.74-3.67 36.95 7.16 4.2 20.4-5.51 29.58-21.71 9.18-16.2 10.82-32.74 3.67-36.95-7.16-4.2-20.4 5.51-29.58 21.71Z"/></g><defs><clipPath id="a"><path fill="#fff" d="M.18 0H70v64H.18z"/></clipPath></defs></svg>