<svg xmlns="http://www.w3.org/2000/svg" width="57" height="64" fill="none"><g fill="#5FA04E" clip-path="url(#a)"><path d="M28.77 64c-.86 0-1.66-.23-2.4-.64l-7.6-4.6c-1.15-.65-.58-.88-.24-1 1.55-.52 1.83-.64 3.43-1.57.18-.12.4-.06.58.05l5.83 3.56c.23.12.51.12.69 0l22.82-13.47c.23-.12.34-.35.34-.64V18.8c0-.3-.11-.53-.34-.65L29.06 4.76c-.23-.12-.52-.12-.69 0L5.55 18.15c-.23.12-.35.41-.35.65v26.88c0 .23.12.52.35.64L11.78 50c3.38 1.75 5.5-.29 5.5-2.33V21.14c0-.35.28-.7.68-.7h2.92c.34 0 .68.29.68.7v26.53c0 4.6-2.46 7.3-6.75 7.3-1.31 0-2.34 0-5.26-1.47l-6-3.5a4.94 4.94 0 0 1-2.4-4.25V18.86c0-1.75.9-3.38 2.4-4.25L26.37 1.14a5.02 5.02 0 0 1 4.8 0L54 14.6c1.5.87 2.4 2.5 2.4 4.25v26.89c0 1.75-.9 3.38-2.4 4.25L31.17 63.48c-.68.29-1.54.52-2.4.52Z"/><path d="M35.86 45.51c-10 0-12.07-4.66-12.07-8.63 0-.35.29-.7.7-.7h2.96c.35 0 .63.24.63.59.46 3.09 1.78 4.6 7.84 4.6 4.8 0 6.86-1.1 6.86-3.73 0-1.51-.57-2.62-8.06-3.38-6.24-.64-10.13-2.04-10.13-7.11 0-4.73 3.9-7.53 10.42-7.53 7.32 0 10.92 2.57 11.38 8.17 0 .17-.06.35-.17.52-.12.12-.29.23-.46.23h-3.03a.67.67 0 0 1-.63-.52c-.69-3.2-2.46-4.26-7.15-4.26-5.26 0-5.9 1.87-5.9 3.27 0 1.69.75 2.21 7.84 3.15 7.04.93 10.36 2.27 10.36 7.29 0 5.13-4.18 8.04-11.39 8.04Z"/></g><defs><clipPath id="a"><path fill="#fff" d="M.51 0h56.32v64H.51z"/></clipPath></defs></svg>