<svg xmlns="http://www.w3.org/2000/svg" width="65" height="64" viewBox="0 0 65 64" fill="none"><g clip-path="url(#a)"><path fill="#fff" d="M64.76 49.59c-2.33.6-3.77.03-5.06-1.91L50.5 34.96l-1.33-1.76-10.73 14.52c-1.22 1.74-2.5 2.5-4.8 1.89L47.4 31.16 34.6 14.5c2.2-.43 3.72-.2 5.07 1.76l9.53 12.87 9.6-12.8c1.23-1.74 2.55-2.4 4.76-1.76l-4.96 6.57-6.72 8.75c-.8 1-.69 1.69.05 2.65L64.76 49.6ZM.78 30.85l1.12-5.52C4.96 14.39 17.5 9.84 26.15 16.6c5.05 3.98 6.3 9.6 6.06 15.9H3.7c-.42 11.34 7.74 18.18 18.15 14.7 3.65-1.23 5.8-4.1 6.88-7.67.54-1.79 1.45-2.07 3.13-1.56-.86 4.47-2.8 8.21-6.9 10.55-6.13 3.5-14.87 2.37-19.47-2.5-2.74-2.82-3.87-6.4-4.38-10.22-.08-.63-.24-1.23-.36-1.84l.02-3.1Zm3-.76h25.74c-.17-8.2-5.28-14.02-12.26-14.07C9.6 15.96 4.1 21.65 3.77 30.09Z"/></g><defs><clipPath id="a"><path fill="#fff" d="M.76 0h64v64h-64z"/></clipPath></defs></svg>